<svg width="225" height="39" viewBox="0 0 225 39" fill="none" xmlns="http://www.w3.org/2000/svg">
<path d="M15.792 38C15.184 38 14.656 37.792 14.208 37.376C13.76 36.928 13.536 36.384 13.536 35.744V0.511999H18.048V35.744C18.048 36.384 17.84 36.928 17.424 37.376C17.008 37.792 16.464 38 15.792 38ZM2.784 4.64C2.176 4.64 1.68 4.448 1.296 4.064C0.912 3.68 0.72 3.184 0.72 2.576C0.72 1.968 0.912 1.472 1.296 1.088C1.68 0.703999 2.176 0.511999 2.784 0.511999H28.8C29.44 0.511999 29.952 0.703999 30.336 1.088C30.72 1.472 30.912 1.968 30.912 2.576C30.912 3.184 30.72 3.68 30.336 4.064C29.952 4.448 29.44 4.64 28.8 4.64H2.784ZM40.1259 38.192C37.7259 38.192 35.5819 37.616 33.6939 36.464C31.8059 35.312 30.3179 33.728 29.2299 31.712C28.1419 29.696 27.5979 27.424 27.5979 24.896C27.5979 22.336 28.1739 20.064 29.3259 18.08C30.5099 16.064 32.0939 14.48 34.0779 13.328C36.0939 12.144 38.3499 11.552 40.8459 11.552C43.3739 11.552 45.6299 12.144 47.6139 13.328C49.5979 14.48 51.1659 16.064 52.3179 18.08C53.5019 20.096 54.1099 22.368 54.1419 24.896L52.4139 25.328C52.4139 27.76 51.8699 29.952 50.7819 31.904C49.6939 33.856 48.2219 35.392 46.3659 36.512C44.5419 37.632 42.4619 38.192 40.1259 38.192ZM40.8459 34.256C42.5739 34.256 44.1099 33.856 45.4539 33.056C46.7979 32.224 47.8539 31.104 48.6219 29.696C49.4219 28.256 49.8219 26.656 49.8219 24.896C49.8219 23.104 49.4219 21.504 48.6219 20.096C47.8539 18.656 46.7979 17.536 45.4539 16.736C44.1099 15.904 42.5739 15.488 40.8459 15.488C39.1819 15.488 37.6619 15.904 36.2859 16.736C34.9099 17.536 33.8219 18.656 33.0219 20.096C32.2539 21.504 31.8699 23.104 31.8699 24.896C31.8699 26.656 32.2539 28.256 33.0219 29.696C33.8219 31.104 34.9099 32.224 36.2859 33.056C37.6619 33.856 39.1819 34.256 40.8459 34.256ZM51.8859 38.048C51.2459 38.048 50.7179 37.84 50.3019 37.424C49.8859 37.008 49.6779 36.48 49.6779 35.84V28.16L50.5899 23.552L54.1419 24.896V35.84C54.1419 36.48 53.9179 37.008 53.4699 37.424C53.0539 37.84 52.5259 38.048 51.8859 38.048ZM70.9874 38.192C68.8754 38.192 66.8754 37.872 64.9874 37.232C63.0994 36.56 61.6114 35.648 60.5234 34.496C60.1074 34.016 59.9314 33.488 59.9954 32.912C60.0594 32.336 60.3474 31.84 60.8594 31.424C61.4034 31.008 61.9634 30.832 62.5394 30.896C63.1154 30.96 63.5954 31.216 63.9794 31.664C64.6194 32.368 65.5474 32.976 66.7634 33.488C68.0114 34 69.3714 34.256 70.8434 34.256C72.9234 34.256 74.4594 33.92 75.4514 33.248C76.4754 32.544 77.0034 31.68 77.0354 30.656C77.0354 29.6 76.5394 28.72 75.5474 28.016C74.5554 27.28 72.8114 26.704 70.3154 26.288C67.0834 25.68 64.7314 24.736 63.2594 23.456C61.7874 22.176 61.0514 20.624 61.0514 18.8C61.0514 17.168 61.4994 15.824 62.3954 14.768C63.3234 13.68 64.5234 12.88 65.9954 12.368C67.4994 11.824 69.0834 11.552 70.7474 11.552C72.8594 11.552 74.7154 11.904 76.3154 12.608C77.9154 13.28 79.1954 14.224 80.1554 15.44C80.5714 15.92 80.7474 16.416 80.6834 16.928C80.6514 17.44 80.3954 17.872 79.9154 18.224C79.4354 18.512 78.8754 18.608 78.2354 18.512C77.6274 18.416 77.1154 18.144 76.6994 17.696C75.8994 16.864 75.0034 16.288 74.0114 15.968C73.0514 15.616 71.9314 15.44 70.6514 15.44C69.1154 15.44 67.8354 15.728 66.8114 16.304C65.8194 16.88 65.3234 17.664 65.3234 18.656C65.3234 19.296 65.4834 19.856 65.8034 20.336C66.1554 20.816 66.7954 21.264 67.7234 21.68C68.6514 22.064 69.9794 22.416 71.7074 22.736C74.1074 23.184 75.9954 23.776 77.3714 24.512C78.7794 25.248 79.7874 26.112 80.3954 27.104C81.0034 28.096 81.3074 29.216 81.3074 30.464C81.3074 31.936 80.8914 33.264 80.0594 34.448C79.2594 35.6 78.0914 36.512 76.5554 37.184C75.0194 37.856 73.1634 38.192 70.9874 38.192ZM91.7321 28.736L89.0441 25.76L104.452 11.984C104.868 11.568 105.332 11.376 105.844 11.408C106.388 11.408 106.852 11.632 107.236 12.08C107.652 12.528 107.844 13.024 107.812 13.568C107.812 14.08 107.588 14.528 107.14 14.912L91.7321 28.736ZM89.9081 38C89.2681 38 88.7401 37.808 88.3241 37.424C87.9401 37.008 87.7481 36.48 87.7481 35.84V2.672C87.7481 2.032 87.9401 1.52 88.3241 1.136C88.7401 0.719999 89.2681 0.511999 89.9081 0.511999C90.5481 0.511999 91.0601 0.719999 91.4441 1.136C91.8601 1.52 92.0681 2.032 92.0681 2.672V35.84C92.0681 36.48 91.8601 37.008 91.4441 37.424C91.0601 37.808 90.5481 38 89.9081 38ZM107.284 37.76C106.804 38.144 106.276 38.304 105.7 38.24C105.156 38.208 104.692 37.952 104.308 37.472L94.2281 25.04L97.2521 22.16L107.572 34.88C107.956 35.328 108.116 35.824 108.052 36.368C108.02 36.88 107.764 37.344 107.284 37.76ZM128.523 38C127.563 38 126.875 37.52 126.459 36.56L112.299 3.92C111.883 2.928 111.835 2.112 112.155 1.472C112.507 0.831999 113.147 0.511999 114.075 0.511999C115.067 0.511999 115.755 0.975999 116.139 1.904L128.811 32.288H128.091L140.907 1.904C141.131 1.392 141.403 1.04 141.723 0.847998C142.043 0.623999 142.475 0.511999 143.019 0.511999C143.883 0.511999 144.475 0.831999 144.795 1.472C145.147 2.112 145.147 2.816 144.795 3.584L130.539 36.56C130.315 37.04 130.027 37.408 129.675 37.664C129.355 37.888 128.971 38 128.523 38ZM153.324 38C152.652 38 152.108 37.792 151.692 37.376C151.276 36.96 151.068 36.432 151.068 35.792V13.952C151.068 13.28 151.276 12.752 151.692 12.368C152.108 11.952 152.652 11.744 153.324 11.744C153.964 11.744 154.492 11.952 154.908 12.368C155.324 12.752 155.532 13.28 155.532 13.952V35.792C155.532 36.432 155.324 36.96 154.908 37.376C154.492 37.792 153.964 38 153.324 38ZM153.276 7.184C152.476 7.184 151.788 6.896 151.212 6.32C150.636 5.744 150.348 5.04 150.348 4.208C150.348 3.376 150.636 2.688 151.212 2.144C151.82 1.568 152.524 1.28 153.324 1.28C154.092 1.28 154.764 1.568 155.34 2.144C155.948 2.688 156.252 3.376 156.252 4.208C156.252 5.04 155.964 5.744 155.388 6.32C154.812 6.896 154.108 7.184 153.276 7.184ZM177.134 38.192C174.478 38.192 172.126 37.632 170.078 36.512C168.062 35.36 166.478 33.792 165.326 31.808C164.174 29.792 163.598 27.488 163.598 24.896C163.598 22.272 164.142 19.968 165.23 17.984C166.318 15.968 167.822 14.4 169.742 13.28C171.662 12.128 173.886 11.552 176.414 11.552C178.878 11.552 181.006 12.112 182.798 13.232C184.59 14.32 185.966 15.84 186.926 17.792C187.886 19.712 188.366 21.936 188.366 24.464C188.366 25.008 188.174 25.472 187.79 25.856C187.438 26.208 186.958 26.384 186.35 26.384H166.622V22.832H186.398L184.43 24.224C184.398 22.528 184.062 21.008 183.422 19.664C182.782 18.32 181.87 17.264 180.686 16.496C179.502 15.728 178.078 15.344 176.414 15.344C174.59 15.344 173.006 15.76 171.662 16.592C170.35 17.424 169.342 18.56 168.638 20C167.934 21.44 167.582 23.072 167.582 24.896C167.582 26.72 167.982 28.352 168.782 29.792C169.614 31.2 170.734 32.32 172.142 33.152C173.582 33.984 175.246 34.4 177.134 34.4C178.158 34.4 179.214 34.208 180.302 33.824C181.422 33.44 182.302 32.992 182.942 32.48C183.39 32.128 183.87 31.952 184.382 31.952C184.894 31.92 185.342 32.064 185.726 32.384C186.206 32.832 186.462 33.328 186.494 33.872C186.526 34.384 186.302 34.832 185.822 35.216C184.734 36.08 183.374 36.8 181.742 37.376C180.142 37.92 178.606 38.192 177.134 38.192ZM199.876 38C199.396 38 198.964 37.872 198.58 37.616C198.196 37.328 197.924 36.976 197.764 36.56L190.516 14.816C190.292 13.888 190.308 13.152 190.564 12.608C190.82 12.032 191.364 11.744 192.196 11.744C192.74 11.744 193.188 11.888 193.54 12.176C193.924 12.464 194.228 12.944 194.452 13.616L200.74 33.104H199.3L205.156 13.424C205.316 12.912 205.572 12.512 205.924 12.224C206.276 11.904 206.756 11.744 207.364 11.744C207.94 11.744 208.404 11.904 208.756 12.224C209.14 12.512 209.396 12.912 209.524 13.424L214.66 32.24H213.892L219.892 13.616C220.276 12.368 221.012 11.744 222.1 11.744C222.932 11.744 223.492 12.048 223.78 12.656C224.068 13.232 224.052 13.952 223.732 14.816L216.484 36.56C216.356 36.976 216.1 37.328 215.716 37.616C215.364 37.872 214.932 38 214.42 38C213.972 38 213.54 37.872 213.124 37.616C212.708 37.328 212.452 36.976 212.356 36.56L206.98 17.6H207.508L201.988 36.56C201.86 36.976 201.588 37.328 201.172 37.616C200.788 37.872 200.356 38 199.876 38Z" fill="#101726"/>
</svg>
